<?xml version="1.0" encoding="UTF-8" standalone="no"?>
<svg
   xmlns:dc="http://purl.org/dc/elements/1.1/"
   xmlns:cc="http://creativecommons.org/ns#"
   xmlns:rdf="http://www.w3.org/1999/02/22-rdf-syntax-ns#"
   xmlns:svg="http://www.w3.org/2000/svg"
   xmlns="http://www.w3.org/2000/svg"
   xmlns:sodipodi="http://sodipodi.sourceforge.net/DTD/sodipodi-0.dtd"
   xmlns:inkscape="http://www.inkscape.org/namespaces/inkscape"
   height="2.4000001"
   width="2.4000001"
   version="1.1"
   id="Layer_1"
   viewBox="0 0 0.92466004 0.92466004"
   xml:space="preserve"
   sodipodi:docname="picnic.svg"
   inkscape:version="1.0.1 (3bc2e813f5, 2020-09-07)"><metadata
   id="metadata25"><rdf:RDF><cc:Work
       rdf:about=""><dc:format>image/svg+xml</dc:format><dc:type
         rdf:resource="http://purl.org/dc/dcmitype/StillImage" /><dc:title></dc:title></cc:Work></rdf:RDF></metadata><defs
   id="defs23">
	
	
	
	
	
	

		
		
	</defs><sodipodi:namedview
   pagecolor="#ffffff"
   bordercolor="#666666"
   borderopacity="1"
   objecttolerance="10"
   gridtolerance="10"
   guidetolerance="10"
   inkscape:pageopacity="0"
   inkscape:pageshadow="2"
   inkscape:window-width="1920"
   inkscape:window-height="1001"
   id="namedview21"
   showgrid="false"
   inkscape:zoom="181.01934"
   inkscape:cx="2.0978818"
   inkscape:cy="1.6275302"
   inkscape:window-x="-9"
   inkscape:window-y="-9"
   inkscape:window-maximized="1"
   inkscape:current-layer="Layer_1" />
<rect
   style="fill:#000000;fill-opacity:1;stroke:#ffffff;stroke-width:0;stroke-miterlimit:4;stroke-dasharray:none"
   fill="param(fill) #000"
   id="rect830"
   width="0.92418301"
   height="0.92506468"
   x="0.00023851448"
   y="-0.00020232148" /><path
   id="path12"
   style="fill:#ffffff;fill-opacity:1;stroke:none;stroke-width:0;stroke-miterlimit:4;stroke-dasharray:none"
   d="m 0.86215367,0.47037632 c 0,0.0218454 -0.015492,0.0394442 -0.034498,0.0394442 h -0.7306513 c -0.0190627,0 -0.034498,-0.01768 -0.034498,-0.0394442 0,-0.0218297 0.0154085,-0.0394443 0.034498,-0.0394443 h 0.7306512 c 0.019063,3.17e-6 0.034498,0.0176516 0.0344981,0.0394443 z m -0.2551771,0.0394474 h 0.1015854 l 0.092068,0.24689059 h -0.1015856 z m -0.09804,-0.26298327 h 0.1015853 l 0.0686413,0.18409461 H 0.57757767 Z M 0.24549627,0.4309351 0.31413747,0.24684049 h 0.1015854 L 0.34708067,0.4309351 Z m -0.1214662,0.32577935 0.0920679,-0.24689059 h 0.1015853 l -0.0920678,0.24689059 z m 0.5267713,-0.50987396 h -0.3769431 c -0.019054,0 -0.034501,-0.017661 -0.034501,-0.0394474 v 0 c 0,-0.0217865 0.015446,-0.0394475 0.034501,-0.0394475 h 0.3769431 c 0.019054,0 0.034501,0.017661 0.034501,0.0394475 v 0 c 0,0.0217864 -0.015446,0.0394474 -0.034501,0.0394474 z" />
</svg>
