<?xml version="1.0" encoding="UTF-8" standalone="no"?>
<svg
   xmlns:dc="http://purl.org/dc/elements/1.1/"
   xmlns:cc="http://creativecommons.org/ns#"
   xmlns:rdf="http://www.w3.org/1999/02/22-rdf-syntax-ns#"
   xmlns:svg="http://www.w3.org/2000/svg"
   xmlns="http://www.w3.org/2000/svg"
   xmlns:sodipodi="http://sodipodi.sourceforge.net/DTD/sodipodi-0.dtd"
   xmlns:inkscape="http://www.inkscape.org/namespaces/inkscape"
   width="1"
   height="1"
   fill="none"
   version="1.1"
   id="svg4"
   sodipodi:docname="star.svg"
   inkscape:version="1.0.1 (3bc2e813f5, 2020-09-07)">
  <metadata
     id="metadata10">
    <rdf:RDF>
      <cc:Work
         rdf:about="">
        <dc:format>image/svg+xml</dc:format>
        <dc:type
           rdf:resource="http://purl.org/dc/dcmitype/StillImage" />
      </cc:Work>
    </rdf:RDF>
  </metadata>
  <defs
     id="defs8" />
  <sodipodi:namedview
     pagecolor="#ffffff"
     bordercolor="#666666"
     borderopacity="1"
     objecttolerance="10"
     gridtolerance="10"
     guidetolerance="10"
     inkscape:pageopacity="0"
     inkscape:pageshadow="2"
     inkscape:window-width="1920"
     inkscape:window-height="1001"
     id="namedview6"
     showgrid="false"
     inkscape:zoom="256"
     inkscape:cx="1.3907733"
     inkscape:cy="0.23213511"
     inkscape:window-x="-9"
     inkscape:window-y="-9"
     inkscape:window-maximized="1"
     inkscape:current-layer="svg4"
     inkscape:document-rotation="0" />
  <path
     d="m 0.55084958,0.07870694 c -0.00938,-0.0194707 -0.029206,-0.0318605 -0.050977,-0.0318605 -0.021771,0 -0.041419,0.0123898 -0.050976,0.0318605 l -0.1138127,0.23417362 -0.2541748,0.0375243 c -0.02124,0.003184 -0.038941,0.0180541 -0.04549,0.0384093 -0.00655,0.0203552 -0.00124,0.0428352 0.013983,0.0578797 l 0.1844361,0.18248925 -0.043542,0.25789218 c -0.00354,0.0212401 0.00531,0.0428338 0.022833,0.055401 0.017524,0.0125672 0.04071,0.0141608 0.059827,0.004077 l 0.2270937,-0.12124884 0.2270935,0.12124628 c 0.019116,0.0100907 0.042303,0.008672 0.059826,-0.004077 0.017523,-0.0127441 0.026373,-0.0341609 0.022833,-0.055401 L 0.76608418,0.62918255 0.95052028,0.44669331 c 0.015222,-0.0150447 0.020709,-0.0375243 0.013983,-0.0578797 -0.00673,-0.0203547 -0.024249,-0.0352232 -0.04549,-0.0384093 l -0.2543518,-0.0375237 z"
     id="path2-8"
     stroke="param(outline) #000000"
     stroke-width="param(outline-width) "
     fill="param(fill) #FFFFFF"
     fill-opacity="param(fill-opacity) "
     />
</svg>
